<svg width="27" height="32" viewBox="0 0 27 32" fill="none" xmlns="http://www.w3.org/2000/svg">
<line y1="-2.5" x2="5" y2="-2.5" transform="matrix(0 -1 -1 0 1 26)" stroke="black" stroke-width="5"/>
<line y1="-2.5" x2="5" y2="-2.5" transform="matrix(0 -1 -1 0 1 11)" stroke="black" stroke-width="5"/>
<line y1="-2.5" x2="20" y2="-2.5" transform="matrix(1 0 0 -1 1 1)" stroke="black" stroke-width="5"/>
<line y1="-2.5" x2="20" y2="-2.5" transform="matrix(1 0 0 -1 1 26)" stroke="black" stroke-width="5"/>
<line y1="-2" x2="15" y2="-2" transform="matrix(1 0 0 -1 1 14)" stroke="black" stroke-width="4"/>
<line y1="-1.5" x2="10" y2="-1.5" transform="matrix(0.707107 -0.707107 -0.707107 -0.707107 9 21.071)" stroke="black" stroke-width="3"/>
<line y1="-1.5" x2="10" y2="-1.5" transform="matrix(-0.707107 -0.707107 -0.707107 0.707107 16.071 18.071)" stroke="black" stroke-width="3"/>
<line y1="-2.5" x2="30" y2="-2.5" transform="matrix(0 -1 -1 0 21 31)" stroke="black" stroke-width="5"/>
</svg>
