<svg width="320" height="510" viewBox="0 0 320 510" fill="none" xmlns="http://www.w3.org/2000/svg">
<line x1="20.5" y1="229" x2="20.5" y2="472.019" stroke="black" stroke-width="15"/>
<line x1="303.5" y1="229" x2="303.5" y2="472.019" stroke="black" stroke-width="15"/>
<line y1="-7.5" x2="239" y2="-7.5" transform="matrix(1 0 0 -1 42 487)" stroke="black" stroke-width="15"/>
<line y1="-7.5" x2="243.019" y2="-7.5" transform="matrix(1 0 0 -1 23 297)" stroke="black" stroke-width="15"/>
<line y1="-7.5" x2="135" y2="-7.5" transform="matrix(1 0 0 -1 94 53)" stroke="black" stroke-width="15"/>
<line y1="-7.5" x2="60" y2="-7.5" transform="matrix(1 0 0 -1 124 112)" stroke="black" stroke-width="15"/>
<line y1="-7.5" x2="64" y2="-7.5" transform="matrix(1 0 0 -1 129 18)" stroke="black" stroke-width="15"/>
<line y1="-7.5" x2="100" y2="-7.5" transform="matrix(0.866025 -0.5 -0.5 -0.866025 112 395)" stroke="black" stroke-width="15"/>
<line y1="-7.5" x2="120" y2="-7.5" transform="matrix(0.866025 -0.5 -0.5 -0.866025 13 229)" stroke="black" stroke-width="15"/>
<line y1="-7.5" x2="100" y2="-7.5" transform="matrix(0.866025 0.5 0.5 -0.866025 118 345)" stroke="black" stroke-width="15"/>
<line y1="-7.5" x2="60" y2="-7.5" transform="matrix(0.866025 0.5 0.5 -0.866025 214 199)" stroke="black" stroke-width="15"/>
<line y1="-7.5" x2="42" y2="-7.5" transform="matrix(0.707107 0.707107 0.707107 -0.707107 23 461)" stroke="black" stroke-width="15"/>
<line x1="275.697" y1="496.395" x2="305.395" y2="466.697" stroke="black" stroke-width="15"/>
<line x1="202.75" y1="175.505" x2="306.673" y2="235.505" stroke="black" stroke-width="15"/>
<line y1="-7.5" x2="70" y2="-7.5" transform="matrix(0 -1 -1 0 199 182)" stroke="black" stroke-width="15"/>
<line y1="-7.5" x2="60" y2="-7.5" transform="matrix(0 -1 -1 0 214 127)" stroke="black" stroke-width="15"/>
<line y1="-7.5" x2="20" y2="-7.5" transform="matrix(0 -1 -1 0 178 53)" stroke="black" stroke-width="15"/>
<line y1="-7.5" x2="30" y2="-7.5" transform="matrix(0 -1 -1 0 251 259)" stroke="black" stroke-width="15"/>
<line y1="-7.5" x2="60" y2="-7.5" transform="matrix(0 -1 -1 0 94 127)" stroke="black" stroke-width="15"/>
<line y1="-7.5" x2="20" y2="-7.5" transform="matrix(0 -1 -1 0 129 53)" stroke="black" stroke-width="15"/>
<line y1="-7.5" x2="70" y2="-7.5" transform="matrix(0 -1 -1 0 109 182)" stroke="black" stroke-width="15"/>
<line y1="-7.5" x2="243.019" y2="-7.5" transform="matrix(1 0 0 -1 53 427)" stroke="black" stroke-width="15"/>
</svg>
